<?xml version="1.0" standalone="no"?>
<!DOCTYPE svg PUBLIC "-//W3C//DTD SVG 20010904//EN"
 "http://www.w3.org/TR/2001/REC-SVG-20010904/DTD/svg10.dtd">
<svg version="1.0" xmlns="http://www.w3.org/2000/svg"
 width="260.000000pt" height="260.000000pt" viewBox="0 0 260.000000 260.000000"
 preserveAspectRatio="xMidYMid meet">
<metadata>
Created by potrace 1.11, written by Peter Selinger 2001-2013
</metadata>
<g transform="translate(0.000000,260.000000) scale(0.100000,-0.100000)"
fill="#000000" stroke="none">
<path d="M1205 2519 c-102 -7 -220 -29 -265 -49 -23 -10 -23 -10 -2 -6 19 4
21 2 11 -10 -6 -8 -8 -14 -3 -14 4 0 -1 -7 -12 -15 -21 -16 -64 -20 -64 -6 0
5 9 13 20 16 21 7 28 25 10 25 -13 0 -50 -37 -50 -50 0 -5 16 -12 37 -16 26
-5 39 -3 47 8 6 8 23 23 38 32 15 10 25 22 22 27 -3 5 0 9 5 9 6 0 11 -7 11
-15 0 -8 5 -15 10 -15 6 0 10 5 10 10 0 6 9 10 20 10 11 0 20 -4 20 -10 0 -5
-8 -10 -17 -10 -15 0 -16 -2 -3 -9 8 -6 17 -8 21 -5 8 5 23 -26 20 -42 -1 -7
6 -15 15 -18 13 -5 14 -9 4 -21 -10 -12 -16 -13 -27 -3 -12 10 -14 8 -11 -8 2
-13 -2 -19 -14 -18 -10 1 -15 -2 -12 -7 10 -17 -15 -9 -28 9 -7 11 -20 21 -28
25 -10 4 -8 6 8 6 12 1 22 6 22 11 0 6 7 10 15 10 9 0 12 6 9 15 -4 8 -15 15
-25 15 -11 0 -22 -7 -25 -15 -4 -8 -17 -15 -30 -15 -16 0 -24 -6 -24 -18 0
-11 -8 -18 -20 -19 -11 -1 -18 2 -15 8 11 16 -19 10 -72 -17 -28 -15 -54 -35
-56 -45 -3 -11 -1 -19 4 -19 5 0 9 -7 9 -15 0 -9 6 -18 14 -21 12 -4 13 -12 5
-31 -5 -14 -7 -28 -5 -30 8 -9 27 8 36 32 5 13 19 25 32 27 15 2 24 11 26 26
2 13 10 26 18 29 8 3 14 11 14 19 0 9 11 14 30 14 26 0 31 -5 37 -30 6 -34 10
-36 34 -14 16 14 18 14 24 -5 3 -12 4 -25 0 -30 -6 -10 32 -51 47 -51 4 0 8
-6 8 -13 0 -19 -68 -41 -122 -38 -25 1 -49 -3 -53 -9 -3 -6 3 -10 17 -10 13 0
18 -4 13 -8 -23 -16 -10 -37 23 -37 17 0 32 -3 32 -6 0 -7 -40 -24 -80 -34
-24 -6 -24 -5 -6 9 24 19 13 20 -37 3 -20 -8 -46 -23 -58 -35 -11 -12 -26 -22
-33 -22 -7 0 -23 -11 -36 -25 -13 -14 -29 -25 -35 -25 -7 0 -15 -13 -18 -29
-5 -23 -18 -36 -59 -58 -53 -28 -53 -28 -58 -83 -9 -94 -40 -109 -40 -19 0 28
-4 48 -9 44 -5 -3 -12 -1 -16 5 -8 14 -52 13 -57 -1 -3 -9 -10 -9 -27 1 -36
19 -69 -5 -98 -69 -36 -78 -40 -121 -14 -145 24 -21 51 -15 58 14 4 14 14 20
33 20 l28 0 -18 -37 c-34 -73 -35 -83 -3 -83 45 0 54 -15 37 -62 -18 -52 -18
-58 5 -88 17 -21 21 -22 35 -11 14 12 20 11 40 -8 l24 -22 13 30 c10 21 21 31
36 31 12 0 25 5 28 10 13 21 24 9 15 -16 -13 -32 -13 -44 0 -44 6 0 10 8 10
19 0 30 25 45 43 26 9 -8 25 -15 36 -15 11 0 23 -4 26 -10 3 -5 18 -7 34 -4
23 5 33 0 51 -23 16 -19 21 -22 16 -8 -4 11 -10 31 -12 44 -3 13 -18 67 -35
120 -17 53 -35 111 -40 129 -10 30 -14 32 -55 32 l-45 0 3 43 3 42 145 0 145
0 3 -42 c3 -41 2 -43 -25 -44 -58 -2 -68 -4 -67 -14 1 -5 25 -94 54 -196 52
-183 53 -185 89 -205 21 -11 37 -28 39 -41 2 -12 9 -27 17 -33 17 -14 11 -35
85 295 33 148 64 273 69 278 4 4 26 5 49 1 l41 -6 29 -127 c17 -69 54 -231 83
-358 29 -128 55 -230 58 -228 5 5 181 615 181 627 0 5 -20 8 -45 8 l-45 0 0
40 0 40 78 1 c138 2 149 4 172 24 17 15 21 27 17 52 -3 19 0 39 8 50 8 10 15
26 15 36 0 13 5 16 25 11 18 -4 33 1 56 20 17 14 39 26 50 26 11 0 29 5 40 11
17 9 22 5 34 -24 14 -34 31 -47 62 -47 8 0 21 -7 29 -15 26 -25 47 -19 40 11
-7 26 -3 27 50 7 6 -2 17 3 24 12 11 14 10 23 -9 62 -19 39 -25 44 -45 39 -18
-4 -31 2 -55 26 -36 37 -53 31 -22 -8 34 -43 15 -40 -26 4 -38 40 -130 98
-140 89 -6 -7 76 -67 92 -67 7 0 15 -9 18 -20 5 -20 5 -20 -20 0 -14 11 -31
20 -38 20 -7 0 -24 9 -37 20 -22 17 -29 18 -51 7 -18 -8 -25 -18 -21 -29 2 -9
0 -19 -6 -23 -6 -4 -8 -20 -5 -39 6 -28 3 -35 -20 -50 -18 -12 -30 -15 -37 -8
-6 6 -17 8 -24 5 -9 -3 -19 8 -29 33 -9 22 -20 47 -25 56 -15 27 -13 28 36 28
42 0 45 1 39 23 -8 24 -43 56 -62 57 -7 0 -13 5 -13 11 0 5 4 8 9 5 9 -6 26
22 23 37 -1 4 3 7 9 7 6 0 8 8 4 19 -7 22 9 36 53 46 l34 7 -21 22 c-12 12
-18 26 -14 29 3 4 -1 7 -10 7 -10 0 -17 7 -17 16 0 10 -6 14 -15 11 -8 -4 -32
9 -56 28 -50 43 -56 44 -27 5 12 -16 25 -30 30 -30 13 0 68 -59 68 -74 0 -23
-27 -26 -46 -5 -18 20 -6 27 14 7 7 -7 12 -8 12 -2 0 14 -46 38 -58 30 -15 -9
-73 27 -70 44 2 8 -10 31 -25 51 -15 20 -27 39 -27 42 0 10 45 8 76 -3 45 -17
38 -4 -13 25 -63 35 -213 73 -316 80 -45 4 -91 7 -102 9 -11 1 -65 -1 -120 -5z
m138 -44 c30 -5 74 -42 77 -65 4 -30 0 -40 -19 -40 -10 0 -24 -6 -31 -14 -6
-8 -21 -16 -33 -18 -14 -2 -29 -17 -40 -40 -18 -36 -37 -50 -37 -28 0 6 -8 10
-17 8 -21 -4 -59 57 -46 75 5 6 10 29 12 50 2 32 0 37 -19 37 -12 0 -18 5 -15
10 3 6 15 10 26 10 10 0 19 5 19 10 0 13 -1 13 -56 -6 -42 -14 -67 -13 -51 2
20 20 131 24 230 9z m194 -142 c6 -16 -42 -21 -62 -7 -15 11 -14 13 12 17 36
5 46 3 50 -10z m191 -90 c28 -28 80 -63 92 -63 5 0 10 -7 10 -15 0 -8 -4 -15
-9 -15 -5 0 -17 -3 -27 -7 -12 -4 -15 -3 -10 5 4 7 2 12 -3 12 -6 0 -11 7 -11
15 0 8 -16 25 -35 37 -35 23 -53 48 -35 48 6 0 18 -8 28 -17z m12 -75 c0 -15
-25 -8 -37 11 -10 15 -10 21 0 24 12 5 37 -19 37 -35z m-621 -89 c-8 -5 -20
-7 -27 -4 -8 3 -21 5 -30 5 -12 0 -11 5 7 24 l23 24 20 -20 c17 -17 18 -22 7
-29z m931 -94 c0 -8 -2 -15 -4 -15 -2 0 -6 7 -10 15 -3 8 -1 15 4 15 6 0 10
-7 10 -15z m80 -35 c0 -5 -7 -7 -15 -4 -8 4 -15 8 -15 10 0 2 7 4 15 4 8 0 15
-4 15 -10z m-1528 -349 c54 -34 67 -51 40 -51 -11 0 -36 16 -57 36 -25 23 -45
34 -57 31 -10 -3 -18 -1 -18 4 0 18 47 8 92 -20z m124 -67 c19 -9 34 -19 34
-23 0 -10 -99 -11 -105 -1 -4 6 1 10 9 10 9 0 16 7 16 15 0 19 4 19 46 -1z
m-116 -24 c0 -5 -7 -7 -15 -4 -8 4 -15 8 -15 10 0 2 7 4 15 4 8 0 15 -4 15
-10z m205 -10 c3 -5 -3 -10 -14 -10 -12 0 -21 5 -21 10 0 6 6 10 14 10 8 0 18
-4 21 -10z m20 -90 c3 -5 1 -10 -4 -10 -6 0 -11 5 -11 10 0 6 2 10 4 10 3 0 8
-4 11 -10z"/>
<path d="M237 1923 c-195 -326 -226 -740 -81 -1091 68 -165 156 -293 287 -419
216 -207 524 -343 677 -300 14 4 19 4 11 1 -10 -5 -2 -13 24 -25 52 -25 152
-25 302 2 65 12 143 25 173 29 138 20 356 140 501 277 68 64 70 68 64 104 -4
21 -2 40 3 43 6 3 13 25 17 49 3 23 14 58 23 77 9 19 16 62 17 95 1 44 9 75
28 114 34 67 38 150 11 207 -13 26 -19 61 -19 104 0 64 0 65 -26 62 -17 -1
-29 3 -33 13 -8 21 -46 18 -76 -5 -14 -11 -36 -20 -48 -20 -13 0 -39 -7 -57
-16 -33 -15 -34 -15 -79 18 -25 18 -45 38 -46 44 0 5 -20 30 -44 54 -24 24
-42 49 -39 56 2 7 0 15 -6 18 -7 5 -7 15 -1 32 13 33 -8 130 -24 113 -2 -2
-50 -155 -106 -339 -56 -184 -106 -341 -112 -347 -16 -20 -103 -16 -124 4 -16
16 -19 15 -60 -32 -31 -34 -44 -59 -44 -80 -1 -67 -45 -145 -82 -145 -22 0
-100 -38 -110 -54 -5 -6 -7 -18 -6 -26 2 -24 -13 -50 -28 -50 -8 0 -18 -10
-23 -23 -14 -36 -37 -50 -73 -43 -31 6 -31 6 -13 -14 22 -24 13 -37 -30 -42
-19 -2 -29 -8 -27 -17 2 -9 -4 -12 -18 -8 -22 6 -25 0 -10 -23 5 -9 5 -19 -1
-26 -7 -9 -5 -15 7 -22 15 -9 16 -12 5 -26 -8 -9 -12 -18 -10 -20 2 -1 15 -11
29 -20 l25 -18 -35 7 c-37 8 -121 65 -113 77 2 5 -1 8 -7 8 -6 0 -10 8 -9 18
3 30 -1 43 -10 38 -14 -9 -41 58 -41 104 0 23 -5 50 -11 62 -6 11 -13 52 -16
91 -8 110 -21 137 -78 175 -41 28 -59 50 -107 139 -63 115 -65 120 -54 145 4
9 3 25 -2 34 -11 19 -3 39 37 89 19 24 22 37 18 78 -5 58 -21 79 -40 53 -12
-16 -15 -14 -50 20 -20 21 -37 43 -37 50 0 26 -23 62 -47 75 -14 7 -31 26 -39
41 -8 16 -20 25 -28 22 -8 -3 -26 13 -45 43 -25 37 -31 55 -26 78 3 17 10 68
14 115 5 47 12 96 16 110 7 25 7 25 -9 5 -18 -21 -18 -20 6 35 21 46 32 100
21 100 -5 0 -30 -35 -56 -77z m7 -150 c-3 -27 -10 -52 -15 -57 -9 -10 -6 20 6
72 11 48 17 39 9 -15z"/>
<path d="M1297 1490 c-3 -8 -26 -107 -51 -220 -39 -177 -43 -206 -31 -216 8
-6 15 -15 15 -20 0 -6 23 -11 52 -12 47 -2 61 -8 114 -47 7 -5 16 -6 20 -3 3
4 -21 125 -54 270 -33 145 -62 256 -65 248z"/>
<path d="M1092 1098 c-14 -14 -16 -28 -2 -28 5 0 14 9 20 20 12 22 1 27 -18 8z"/>
</g>
</svg>
